<mxfile host="app.diagrams.net" modified="2023-12-07T08:11:28.963Z" agent="Mozilla/5.0 (X11; Linux x86_64) AppleWebKit/537.36 (KHTML, like Gecko) Chrome/118.0.0.0 Safari/537.36" etag="dZUHkK7SllXLad6RnEQd" version="22.1.7" type="github">
  <diagram id="C5RBs43oDa-KdzZeNtuy" name="Page-1">
    <mxGraphModel dx="1464" dy="796" grid="1" gridSize="10" guides="1" tooltips="1" connect="1" arrows="1" fold="1" page="1" pageScale="1" pageWidth="827" pageHeight="1169" math="0" shadow="0">
      <root>
        <mxCell id="WIyWlLk6GJQsqaUBKTNV-0" />
        <mxCell id="WIyWlLk6GJQsqaUBKTNV-1" parent="WIyWlLk6GJQsqaUBKTNV-0" />
        <mxCell id="8IEHx4uV2aPZDYNiBKdp-0" value="1) create two browser windows&lt;br&gt;&lt;br&gt;2)use MessageChannelMain api to create two ports&lt;br&gt;&lt;br&gt;3)send port1 to windowA and port2 to windowB" style="rounded=1;whiteSpace=wrap;html=1;absoluteArcSize=1;arcSize=14;strokeWidth=2;" vertex="1" parent="WIyWlLk6GJQsqaUBKTNV-1">
          <mxGeometry x="360" y="620" width="226" height="180" as="geometry" />
        </mxCell>
        <mxCell id="8IEHx4uV2aPZDYNiBKdp-2" value="main process(index.js)" style="text;html=1;align=center;verticalAlign=middle;resizable=0;points=[];autosize=1;strokeColor=none;fillColor=none;" vertex="1" parent="WIyWlLk6GJQsqaUBKTNV-1">
          <mxGeometry x="390" y="580" width="140" height="30" as="geometry" />
        </mxCell>
        <mxCell id="8IEHx4uV2aPZDYNiBKdp-3" value="" style="endArrow=classic;html=1;rounded=0;" edge="1" parent="WIyWlLk6GJQsqaUBKTNV-1">
          <mxGeometry width="50" height="50" relative="1" as="geometry">
            <mxPoint x="350" y="600" as="sourcePoint" />
            <mxPoint x="270" y="370" as="targetPoint" />
          </mxGeometry>
        </mxCell>
        <mxCell id="8IEHx4uV2aPZDYNiBKdp-4" value="port1" style="text;html=1;align=center;verticalAlign=middle;resizable=0;points=[];autosize=1;strokeColor=none;fillColor=none;" vertex="1" parent="WIyWlLk6GJQsqaUBKTNV-1">
          <mxGeometry x="305" y="448" width="50" height="30" as="geometry" />
        </mxCell>
        <mxCell id="8IEHx4uV2aPZDYNiBKdp-6" value="" style="endArrow=classic;html=1;rounded=0;" edge="1" parent="WIyWlLk6GJQsqaUBKTNV-1">
          <mxGeometry width="50" height="50" relative="1" as="geometry">
            <mxPoint x="560" y="570" as="sourcePoint" />
            <mxPoint x="640" y="400" as="targetPoint" />
          </mxGeometry>
        </mxCell>
        <mxCell id="8IEHx4uV2aPZDYNiBKdp-7" value="port2" style="text;html=1;align=center;verticalAlign=middle;resizable=0;points=[];autosize=1;strokeColor=none;fillColor=none;" vertex="1" parent="WIyWlLk6GJQsqaUBKTNV-1">
          <mxGeometry x="605" y="458" width="50" height="30" as="geometry" />
        </mxCell>
        <mxCell id="8IEHx4uV2aPZDYNiBKdp-8" value="" style="swimlane;startSize=0;" vertex="1" parent="WIyWlLk6GJQsqaUBKTNV-1">
          <mxGeometry x="170" y="200" width="200" height="160" as="geometry" />
        </mxCell>
        <mxCell id="8IEHx4uV2aPZDYNiBKdp-22" value="1) listen for &quot;port&quot; event&lt;br&gt;2)receive data" style="text;html=1;align=center;verticalAlign=middle;resizable=0;points=[];autosize=1;strokeColor=none;fillColor=none;" vertex="1" parent="8IEHx4uV2aPZDYNiBKdp-8">
          <mxGeometry x="30" y="48" width="150" height="40" as="geometry" />
        </mxCell>
        <mxCell id="8IEHx4uV2aPZDYNiBKdp-9" value="" style="swimlane;startSize=0;" vertex="1" parent="WIyWlLk6GJQsqaUBKTNV-1">
          <mxGeometry x="560" y="200" width="190" height="180" as="geometry" />
        </mxCell>
        <mxCell id="8IEHx4uV2aPZDYNiBKdp-21" value="1)Listen for an event&lt;br&gt;2)when that event happens&lt;br&gt;3)use postMessage fn&lt;br&gt;4)to send data to port1" style="text;html=1;align=center;verticalAlign=middle;resizable=0;points=[];autosize=1;strokeColor=none;fillColor=none;" vertex="1" parent="8IEHx4uV2aPZDYNiBKdp-9">
          <mxGeometry y="18" width="170" height="70" as="geometry" />
        </mxCell>
        <mxCell id="8IEHx4uV2aPZDYNiBKdp-10" value="windowA(1st render process)" style="text;html=1;align=center;verticalAlign=middle;resizable=0;points=[];autosize=1;strokeColor=none;fillColor=none;" vertex="1" parent="WIyWlLk6GJQsqaUBKTNV-1">
          <mxGeometry x="150" y="168" width="180" height="30" as="geometry" />
        </mxCell>
        <mxCell id="8IEHx4uV2aPZDYNiBKdp-11" value="" style="swimlane;startSize=0;" vertex="1" parent="WIyWlLk6GJQsqaUBKTNV-1">
          <mxGeometry x="-100" y="198" width="200" height="200" as="geometry" />
        </mxCell>
        <mxCell id="8IEHx4uV2aPZDYNiBKdp-12" value="html linked with windowA" style="text;html=1;align=center;verticalAlign=middle;resizable=0;points=[];autosize=1;strokeColor=none;fillColor=none;" vertex="1" parent="WIyWlLk6GJQsqaUBKTNV-1">
          <mxGeometry x="-120" y="168" width="160" height="30" as="geometry" />
        </mxCell>
        <mxCell id="8IEHx4uV2aPZDYNiBKdp-14" value="" style="endArrow=classic;startArrow=classic;html=1;rounded=0;" edge="1" parent="WIyWlLk6GJQsqaUBKTNV-1">
          <mxGeometry width="50" height="50" relative="1" as="geometry">
            <mxPoint x="110" y="290" as="sourcePoint" />
            <mxPoint x="160" y="290" as="targetPoint" />
          </mxGeometry>
        </mxCell>
        <mxCell id="8IEHx4uV2aPZDYNiBKdp-15" value="" style="swimlane;startSize=0;" vertex="1" parent="WIyWlLk6GJQsqaUBKTNV-1">
          <mxGeometry x="800" y="190" width="200" height="200" as="geometry" />
        </mxCell>
        <mxCell id="8IEHx4uV2aPZDYNiBKdp-16" value="windowB(2nd render prrocess)" style="text;html=1;align=center;verticalAlign=middle;resizable=0;points=[];autosize=1;strokeColor=none;fillColor=none;" vertex="1" parent="WIyWlLk6GJQsqaUBKTNV-1">
          <mxGeometry x="525" y="168" width="190" height="30" as="geometry" />
        </mxCell>
        <mxCell id="8IEHx4uV2aPZDYNiBKdp-17" value="html linked with windowB" style="text;html=1;align=center;verticalAlign=middle;resizable=0;points=[];autosize=1;strokeColor=none;fillColor=none;" vertex="1" parent="WIyWlLk6GJQsqaUBKTNV-1">
          <mxGeometry x="820" y="158" width="160" height="30" as="geometry" />
        </mxCell>
        <mxCell id="8IEHx4uV2aPZDYNiBKdp-18" value="" style="endArrow=classic;startArrow=classic;html=1;rounded=0;exitX=0.995;exitY=0.563;exitDx=0;exitDy=0;exitPerimeter=0;" edge="1" parent="WIyWlLk6GJQsqaUBKTNV-1" source="8IEHx4uV2aPZDYNiBKdp-8" target="8IEHx4uV2aPZDYNiBKdp-9">
          <mxGeometry width="50" height="50" relative="1" as="geometry">
            <mxPoint x="390" y="530" as="sourcePoint" />
            <mxPoint x="550" y="290" as="targetPoint" />
          </mxGeometry>
        </mxCell>
        <mxCell id="8IEHx4uV2aPZDYNiBKdp-19" value="port1-port2" style="text;html=1;align=center;verticalAlign=middle;resizable=0;points=[];autosize=1;strokeColor=none;fillColor=none;" vertex="1" parent="WIyWlLk6GJQsqaUBKTNV-1">
          <mxGeometry x="410" y="258" width="80" height="30" as="geometry" />
        </mxCell>
        <mxCell id="8IEHx4uV2aPZDYNiBKdp-23" value="" style="endArrow=classic;startArrow=classic;html=1;rounded=0;entryX=-0.005;entryY=0.565;entryDx=0;entryDy=0;entryPerimeter=0;exitX=1;exitY=0.55;exitDx=0;exitDy=0;exitPerimeter=0;" edge="1" parent="WIyWlLk6GJQsqaUBKTNV-1" source="8IEHx4uV2aPZDYNiBKdp-9" target="8IEHx4uV2aPZDYNiBKdp-15">
          <mxGeometry width="50" height="50" relative="1" as="geometry">
            <mxPoint x="710" y="430" as="sourcePoint" />
            <mxPoint x="760" y="380" as="targetPoint" />
          </mxGeometry>
        </mxCell>
      </root>
    </mxGraphModel>
  </diagram>
</mxfile>
